<svg width="4730" height="1306" xmlns="http://www.w3.org/2000/svg" xmlns:xlink="http://www.w3.org/1999/xlink" xml:space="preserve" overflow="hidden"><defs><filter id="fx0" x="-10%" y="-10%" width="120%" height="120%" filterUnits="userSpaceOnUse" primitiveUnits="userSpaceOnUse"><feComponentTransfer color-interpolation-filters="sRGB"><feFuncR type="discrete" tableValues="0.000000 0.000000"/><feFuncG type="discrete" tableValues="0.000000 0.000000"/><feFuncB type="discrete" tableValues="0.000000 0.000000"/><feFuncA type="linear" slope="0.400000" intercept="0.000000"/></feComponentTransfer><feGaussianBlur stdDeviation="1.783635 1.783635"/></filter><filter id="fx1" x="-10%" y="-10%" width="120%" height="120%" filterUnits="userSpaceOnUse" primitiveUnits="userSpaceOnUse"><feComponentTransfer color-interpolation-filters="sRGB"><feFuncR type="discrete" tableValues="0.000000 0.000000"/><feFuncG type="discrete" tableValues="0.000000 0.000000"/><feFuncB type="discrete" tableValues="0.000000 0.000000"/><feFuncA type="linear" slope="0.400000" intercept="0.000000"/></feComponentTransfer><feGaussianBlur stdDeviation="1.783635 1.783635"/></filter><filter id="fx2" x="-10%" y="-10%" width="120%" height="120%" filterUnits="userSpaceOnUse" primitiveUnits="userSpaceOnUse"><feComponentTransfer color-interpolation-filters="sRGB"><feFuncR type="discrete" tableValues="0.000000 0.000000"/><feFuncG type="discrete" tableValues="0.000000 0.000000"/><feFuncB type="discrete" tableValues="0.000000 0.000000"/><feFuncA type="linear" slope="0.400000" intercept="0.000000"/></feComponentTransfer><feGaussianBlur stdDeviation="1.783635 1.783635"/></filter><filter id="fx3" x="-10%" y="-10%" width="120%" height="120%" filterUnits="userSpaceOnUse" primitiveUnits="userSpaceOnUse"><feComponentTransfer color-interpolation-filters="sRGB"><feFuncR type="discrete" tableValues="0.000000 0.000000"/><feFuncG type="discrete" tableValues="0.000000 0.000000"/><feFuncB type="discrete" tableValues="0.000000 0.000000"/><feFuncA type="linear" slope="0.400000" intercept="0.000000"/></feComponentTransfer><feGaussianBlur stdDeviation="1.783635 1.783635"/></filter><filter id="fx4" x="-10%" y="-10%" width="120%" height="120%" filterUnits="userSpaceOnUse" primitiveUnits="userSpaceOnUse"><feComponentTransfer color-interpolation-filters="sRGB"><feFuncR type="discrete" tableValues="0.000000 0.000000"/><feFuncG type="discrete" tableValues="0.000000 0.000000"/><feFuncB type="discrete" tableValues="0.000000 0.000000"/><feFuncA type="linear" slope="0.400000" intercept="0.000000"/></feComponentTransfer><feGaussianBlur stdDeviation="1.783635 1.783635"/></filter><filter id="fx5" x="-10%" y="-10%" width="120%" height="120%" filterUnits="userSpaceOnUse" primitiveUnits="userSpaceOnUse"><feComponentTransfer color-interpolation-filters="sRGB"><feFuncR type="discrete" tableValues="0.000000 0.000000"/><feFuncG type="discrete" tableValues="0.000000 0.000000"/><feFuncB type="discrete" tableValues="0.000000 0.000000"/><feFuncA type="linear" slope="0.400000" intercept="0.000000"/></feComponentTransfer><feGaussianBlur stdDeviation="1.783635 1.783635"/></filter><filter id="fx6" x="-10%" y="-10%" width="120%" height="120%" filterUnits="userSpaceOnUse" primitiveUnits="userSpaceOnUse"><feComponentTransfer color-interpolation-filters="sRGB"><feFuncR type="discrete" tableValues="0.000000 0.000000"/><feFuncG type="discrete" tableValues="0.000000 0.000000"/><feFuncB type="discrete" tableValues="0.000000 0.000000"/><feFuncA type="linear" slope="0.400000" intercept="0.000000"/></feComponentTransfer><feGaussianBlur stdDeviation="1.783635 1.783635"/></filter><filter id="fx7" x="-10%" y="-10%" width="120%" height="120%" filterUnits="userSpaceOnUse" primitiveUnits="userSpaceOnUse"><feComponentTransfer color-interpolation-filters="sRGB"><feFuncR type="discrete" tableValues="0.000000 0.000000"/><feFuncG type="discrete" tableValues="0.000000 0.000000"/><feFuncB type="discrete" tableValues="0.000000 0.000000"/><feFuncA type="linear" slope="0.400000" intercept="0.000000"/></feComponentTransfer><feGaussianBlur stdDeviation="1.783635 1.783635"/></filter><filter id="fx8" x="-10%" y="-10%" width="120%" height="120%" filterUnits="userSpaceOnUse" primitiveUnits="userSpaceOnUse"><feComponentTransfer color-interpolation-filters="sRGB"><feFuncR type="discrete" tableValues="0.000000 0.000000"/><feFuncG type="discrete" tableValues="0.000000 0.000000"/><feFuncB type="discrete" tableValues="0.000000 0.000000"/><feFuncA type="linear" slope="0.400000" intercept="0.000000"/></feComponentTransfer><feGaussianBlur stdDeviation="2.089565 2.089565"/></filter><filter id="fx9" x="-10%" y="-10%" width="120%" height="120%" filterUnits="userSpaceOnUse" primitiveUnits="userSpaceOnUse"><feComponentTransfer color-interpolation-filters="sRGB"><feFuncR type="discrete" tableValues="0.000000 0.000000"/><feFuncG type="discrete" tableValues="0.000000 0.000000"/><feFuncB type="discrete" tableValues="0.000000 0.000000"/><feFuncA type="linear" slope="0.400000" intercept="0.000000"/></feComponentTransfer><feGaussianBlur stdDeviation="2.089565 2.089565"/></filter></defs><g transform="translate(-1040 -3116)"><g><rect x="2122.5" y="3345.5" width="631" height="409" stroke="#80350E" stroke-width="9.16667" stroke-linecap="square" stroke-linejoin="miter" stroke-miterlimit="8" stroke-dasharray="27.5 9.16667" stroke-opacity="1" fill="#E5B9A2" fill-opacity="0.4"/><path d="M4768.5 3318.15C4768.5 3264.77 4811.77 3221.5 4865.15 3221.5L5667.85 3221.5C5721.23 3221.5 5764.5 3264.77 5764.5 3318.15L5764.5 4218.85C5764.5 4272.23 5721.23 4315.5 5667.85 4315.5L4865.15 4315.5C4811.77 4315.5 4768.5 4272.23 4768.5 4218.85Z" stroke="#042433" stroke-width="6.875" stroke-linecap="butt" stroke-linejoin="miter" stroke-miterlimit="8" stroke-opacity="1" fill="#E0EAF1" fill-rule="evenodd" fill-opacity="0.701961"/><path d="M2549.5 3649.62C2549.5 3629.67 2565.67 3613.5 2585.62 3613.5L2675.38 3613.5C2695.33 3613.5 2711.5 3629.67 2711.5 3649.62L2711.5 3681.38C2711.5 3701.33 2695.33 3717.5 2675.38 3717.5L2585.62 3717.5C2565.67 3717.5 2549.5 3701.33 2549.5 3681.38Z" stroke="#D89775" stroke-width="3.4375" stroke-linecap="butt" stroke-linejoin="miter" stroke-miterlimit="8" stroke-opacity="1" fill="#E5B9A2" fill-rule="evenodd" fill-opacity="0.8"/><text fill="#171717" fill-opacity="1" font-family="Arial,Arial_MSFontService,sans-serif" font-style="normal" font-variant="normal" font-weight="400" font-stretch="normal" font-size="92" text-anchor="start" direction="ltr" writing-mode="lr-tb" unicode-bidi="normal" text-decoration="none" transform="matrix(1 0 0 1 2614.55 3699)">r</text><g filter="url(#fx0)" transform="translate(2552 3822)"><g><g><path d="M-0.121582 0 22.6953-59.4131 31.1655-59.4131 55.4819 0 46.5254 0 39.5952-17.9941 14.752-17.9941 8.22705 0ZM17.0215-24.3975 37.1636-24.3975 30.9629-40.8516C29.0716-45.8499 27.6667-49.9567 26.748-53.1719 25.9915-49.3623 24.9243-45.5797 23.5464-41.8242Z" fill="#000000" fill-rule="nonzero" fill-opacity="1" transform="matrix(1 0 0 1 56.6633 112)"/></g></g></g><text fill="#000000" fill-opacity="1" font-family="Arial,Arial_MSFontService,sans-serif" font-style="normal" font-variant="normal" font-weight="400" font-stretch="normal" font-size="83" text-anchor="start" direction="ltr" writing-mode="lr-tb" unicode-bidi="normal" text-decoration="none" transform="matrix(1 0 0 1 2606.68 3932)">A</text><g filter="url(#fx1)" transform="translate(2546 4057)"><g><g><path d="M45.3906-59.4131 53.2529-59.4131 53.2529-25.0864C53.2529-19.1154 52.5775-14.3737 51.2266-10.8613 49.8756-7.34896 47.4372-4.49178 43.9114-2.28979 40.3855-0.0878093 35.7586 1.01318 30.0308 1.01318 24.465 1.01318 19.9124 0.0540364 16.373-1.86426 12.8337-3.78255 10.3075-6.55867 8.79443-10.1926 7.28141-13.8266 6.5249-18.7912 6.5249-25.0864L6.5249-59.4131 14.3872-59.4131 14.3872-25.127C14.3872-19.9665 14.8668-16.1637 15.8259-13.7185 16.7851-11.2734 18.4332-9.38883 20.7703-8.06494 23.1073-6.74105 25.9645-6.0791 29.3418-6.0791 35.1237-6.0791 39.244-7.38948 41.7026-10.0103 44.1613-12.631 45.3906-17.6699 45.3906-25.127Z" fill="#000000" fill-rule="nonzero" fill-opacity="1" transform="matrix(1 0 0 1 56.5703 111)"/></g></g></g><text fill="#000000" fill-opacity="1" font-family="Arial,Arial_MSFontService,sans-serif" font-style="normal" font-variant="normal" font-weight="400" font-stretch="normal" font-size="83" text-anchor="start" direction="ltr" writing-mode="lr-tb" unicode-bidi="normal" text-decoration="none" transform="matrix(1 0 0 1 2600.59 4166)">U</text><g filter="url(#fx2)" transform="translate(2539 4173)"><g><g><path d="M9.68603 0 9.68603-8.3081 17.9941-8.3081 17.9941 0ZM37.3662 0 37.3662-8.3081 45.6743-8.3081 45.6743 0ZM65.0059 0 65.0059-8.3081 73.3545-8.3081 73.3545 0Z" fill="#000000" fill-rule="nonzero" fill-opacity="1" transform="matrix(1 0 0 1 56.7119 112)"/></g></g></g><text fill="#000000" fill-opacity="1" font-family="Arial,Arial_MSFontService,sans-serif" font-style="normal" font-variant="normal" font-weight="400" font-stretch="normal" font-size="83" text-anchor="start" direction="ltr" writing-mode="lr-tb" unicode-bidi="normal" text-decoration="none" transform="matrix(1 0 0 1 2593.73 4283)">…</text><path d="M2717.06 3426.99 2866.87 3429.13 2866.76 3437.15 2716.94 3435.01ZM2862.43 3419.32 2889.73 3433.46 2862.03 3446.82Z" fill="#262626" fill-rule="nonzero" fill-opacity="1"/><text fill="#000000" fill-opacity="1" font-family="Arial,Arial_MSFontService,sans-serif" font-style="normal" font-variant="normal" font-weight="400" font-stretch="normal" font-size="73" text-anchor="start" direction="ltr" writing-mode="lr-tb" unicode-bidi="normal" text-decoration="none" transform="matrix(1 0 0 1 2216.54 3454)">Species</text><text fill="#000000" fill-opacity="1" font-family="Arial,Arial_MSFontService,sans-serif" font-style="normal" font-variant="normal" font-weight="400" font-stretch="normal" font-size="73" text-anchor="start" direction="ltr" writing-mode="lr-tb" unicode-bidi="normal" text-decoration="none" transform="matrix(1 0 0 1 2180.94 3691)">RNA types</text><path d="M3459.76 3296.5C3509.87 3296.5 3550.5 3337.13 3550.5 3387.24L3550.5 4221.76C3550.5 4271.87 3509.87 4312.5 3459.76 4312.5L2987.24 4312.5C2937.13 4312.5 2896.5 4271.87 2896.5 4221.76L2896.5 3387.24C2896.5 3337.13 2937.13 3296.5 2987.24 3296.5Z" stroke="#595959" stroke-width="6.875" stroke-linecap="butt" stroke-linejoin="miter" stroke-miterlimit="8" stroke-opacity="1" fill="#F2F2F2" fill-rule="evenodd" fill-opacity="1"/><path d="M2717.06 4130.99 2866.87 4133.13 2866.76 4141.15 2716.94 4139.01ZM2862.43 4123.32 2889.73 4137.46 2862.03 4150.82Z" fill="#262626" fill-rule="nonzero" fill-opacity="1"/><path d="M2717.06 3896.99 2866.87 3899.13 2866.76 3907.15 2716.94 3905.01ZM2862.43 3889.32 2889.73 3903.46 2862.03 3916.82Z" fill="#262626" fill-rule="nonzero" fill-opacity="1"/><path d="M2717.06 3661.99 2866.87 3664.13 2866.76 3672.15 2716.94 3670.01ZM2862.43 3654.32 2889.73 3668.46 2862.03 3681.82Z" fill="#262626" fill-rule="nonzero" fill-opacity="1"/><path d="M2546.5 3419.01C2546.5 3398.29 2563.29 3381.5 2584.01 3381.5L2670.99 3381.5C2691.71 3381.5 2708.5 3398.29 2708.5 3419.01L2708.5 3451.99C2708.5 3472.71 2691.71 3489.5 2670.99 3489.5L2584.01 3489.5C2563.29 3489.5 2546.5 3472.71 2546.5 3451.99Z" stroke="#D89775" stroke-width="3.4375" stroke-linecap="butt" stroke-linejoin="miter" stroke-miterlimit="8" stroke-opacity="1" fill="#E5B9A2" fill-rule="evenodd" fill-opacity="0.8"/><text fill="#171717" fill-opacity="1" font-family="Arial,Arial_MSFontService,sans-serif" font-style="normal" font-variant="normal" font-weight="400" font-stretch="normal" font-size="92" text-anchor="start" direction="ltr" writing-mode="lr-tb" unicode-bidi="normal" text-decoration="none" transform="matrix(1 0 0 1 2603.84 3469)">s</text><text fill="#262626" fill-opacity="1" font-family="Arial,Arial_MSFontService,sans-serif" font-style="normal" font-variant="normal" font-weight="400" font-stretch="normal" font-size="73" text-anchor="start" direction="ltr" writing-mode="lr-tb" unicode-bidi="normal" text-decoration="none" transform="matrix(1 0 0 1 3091.32 3227)">RNAVerse</text><path d="M3253.5 3273.5 3254.12 3768.24" stroke="#3A3A3A" stroke-width="6.875" stroke-linecap="butt" stroke-linejoin="miter" stroke-miterlimit="8" stroke-opacity="1" fill="none" fill-rule="evenodd"/><path d="M0 0 285.625 523.312" stroke="#3B7D23" stroke-width="6.875" stroke-linecap="square" stroke-linejoin="miter" stroke-miterlimit="8" stroke-dasharray="20.625 6.875" stroke-opacity="0.6" fill="none" fill-rule="evenodd" transform="matrix(1 0 0 -1 3369.5 4109.81)"/><path d="M3374.5 4227.5 3655.3 4254.92" stroke="#3B7D23" stroke-width="6.875" stroke-linecap="square" stroke-linejoin="miter" stroke-miterlimit="8" stroke-dasharray="20.625 6.875" stroke-opacity="0.6" fill="none" fill-rule="evenodd"/><rect x="3657.5" y="3583.5" width="978" height="671" stroke="#3B7D23" stroke-width="6.875" stroke-linecap="butt" stroke-linejoin="miter" stroke-miterlimit="8" stroke-opacity="0.6" fill="#3B7D23" fill-opacity="0.2"/><path d="M0 0 336.915 0.458694" stroke="#3A3A3A" stroke-width="6.875" stroke-linecap="butt" stroke-linejoin="miter" stroke-miterlimit="8" stroke-opacity="1" fill="none" fill-rule="evenodd" transform="matrix(1 0 0 -1 3977.5 3896.96)"/><rect x="4007" y="3814" width="53" height="82.0002" stroke="#3A3A3A" stroke-width="5.72917" stroke-linecap="butt" stroke-linejoin="miter" stroke-miterlimit="8" stroke-opacity="1" fill="#F6CDA2" fill-opacity="0.6"/><rect x="4081" y="3736" width="53" height="160" stroke="#3A3A3A" stroke-width="5.72917" stroke-linecap="butt" stroke-linejoin="miter" stroke-miterlimit="8" stroke-opacity="1" fill="#E97132" fill-opacity="0.6"/><rect x="4155" y="3850" width="53" height="46" stroke="#3A3A3A" stroke-width="5.72917" stroke-linecap="butt" stroke-linejoin="miter" stroke-miterlimit="8" stroke-opacity="1" fill="#FDF1EA" fill-opacity="1"/><rect x="4233" y="3777" width="53" height="119" stroke="#3A3A3A" stroke-width="5.72917" stroke-linecap="butt" stroke-linejoin="miter" stroke-miterlimit="8" stroke-opacity="1" fill="#E97132" fill-opacity="0.301961"/><path d="M4110 3896 4110 3928.08" stroke="#3A3A3A" stroke-width="5.72917" stroke-linecap="butt" stroke-linejoin="miter" stroke-miterlimit="8" stroke-opacity="1" fill="none" fill-rule="evenodd"/><path d="M3750.5 3983.33C3750.5 3974.59 3757.59 3967.5 3766.33 3967.5L3924.67 3967.5C3933.41 3967.5 3940.5 3974.59 3940.5 3983.33L3940.5 4046.67C3940.5 4055.41 3933.41 4062.5 3924.67 4062.5L3766.33 4062.5C3757.59 4062.5 3750.5 4055.41 3750.5 4046.67Z" stroke="#3A3A3A" stroke-width="4.58333" stroke-linecap="butt" stroke-linejoin="miter" stroke-miterlimit="8" stroke-opacity="1" fill="#3B7D23" fill-rule="evenodd" fill-opacity="0.2"/><text fill="#E8E8E8" fill-opacity="1" font-family="Arial,Arial_MSFontService,sans-serif" font-style="normal" font-variant="normal" font-weight="700" font-stretch="normal" font-size="46" text-anchor="start" direction="ltr" writing-mode="lr-tb" unicode-bidi="normal" text-decoration="none" transform="matrix(1 0 0 1 3772.73 4030)">FFNN1</text><path d="M3951.5 3983.33C3951.5 3974.59 3958.59 3967.5 3967.33 3967.5L4124.67 3967.5C4133.41 3967.5 4140.5 3974.59 4140.5 3983.33L4140.5 4046.67C4140.5 4055.41 4133.41 4062.5 4124.67 4062.5L3967.33 4062.5C3958.59 4062.5 3951.5 4055.41 3951.5 4046.67Z" stroke="#3A3A3A" stroke-width="4.58333" stroke-linecap="butt" stroke-linejoin="miter" stroke-miterlimit="8" stroke-opacity="1" fill="#3B7D23" fill-rule="evenodd" fill-opacity="0.6"/><text fill="#FFFFFF" fill-opacity="1" font-family="Arial,Arial_MSFontService,sans-serif" font-style="normal" font-variant="normal" font-weight="700" font-stretch="normal" font-size="46" text-anchor="start" direction="ltr" writing-mode="lr-tb" unicode-bidi="normal" text-decoration="none" transform="matrix(1 0 0 1 3972.81 4030)">FFNN2</text><path d="M4157.5 3981.5C4157.5 3972.66 4164.66 3965.5 4173.5 3965.5L4330.5 3965.5C4339.34 3965.5 4346.5 3972.66 4346.5 3981.5L4346.5 4045.5C4346.5 4054.34 4339.34 4061.5 4330.5 4061.5L4173.5 4061.5C4164.66 4061.5 4157.5 4054.34 4157.5 4045.5Z" stroke="#3A3A3A" stroke-width="4.58333" stroke-linecap="butt" stroke-linejoin="miter" stroke-miterlimit="8" stroke-opacity="1" fill="#3B7D23" fill-rule="evenodd" fill-opacity="0.2"/><text fill="#E8E8E8" fill-opacity="1" font-family="Arial,Arial_MSFontService,sans-serif" font-style="normal" font-variant="normal" font-weight="700" font-stretch="normal" font-size="46" text-anchor="start" direction="ltr" writing-mode="lr-tb" unicode-bidi="normal" text-decoration="none" transform="matrix(1 0 0 1 4176.51 4030)">FFNN3</text><path d="M4363.5 3981.5C4363.5 3972.66 4370.66 3965.5 4379.5 3965.5L4536.5 3965.5C4545.34 3965.5 4552.5 3972.66 4552.5 3981.5L4552.5 4045.5C4552.5 4054.34 4545.34 4061.5 4536.5 4061.5L4379.5 4061.5C4370.66 4061.5 4363.5 4054.34 4363.5 4045.5Z" stroke="#3A3A3A" stroke-width="4.58333" stroke-linecap="butt" stroke-linejoin="miter" stroke-miterlimit="8" stroke-opacity="1" fill="#3B7D23" fill-rule="evenodd" fill-opacity="0.2"/><text fill="#E8E8E8" fill-opacity="1" font-family="Arial,Arial_MSFontService,sans-serif" font-style="normal" font-variant="normal" font-weight="700" font-stretch="normal" font-size="46" text-anchor="start" direction="ltr" writing-mode="lr-tb" unicode-bidi="normal" text-decoration="none" transform="matrix(1 0 0 1 4385.33 4030)">FFNN4</text><path d="M0 0 53.6091 0.000360892" stroke="#3A3A3A" stroke-width="5.72917" stroke-linecap="butt" stroke-linejoin="miter" stroke-miterlimit="8" stroke-opacity="1" fill="none" fill-rule="evenodd" transform="matrix(-1 0 0 1 4109.61 3924)"/><path d="M4058.86 3921 4058.86 3947.38 4053.14 3947.38 4053.14 3921ZM4069.75 3942.8 4056 3970.3 4042.25 3942.8Z" fill="#3A3A3A" fill-rule="nonzero" fill-opacity="1"/><path d="M0 0 357.949 0.000360892" stroke="#3A3A3A" stroke-width="5.72917" stroke-linecap="square" stroke-linejoin="miter" stroke-miterlimit="8" stroke-dasharray="17.1875 5.72917" stroke-opacity="1" fill="none" fill-rule="evenodd" transform="matrix(-1 0 0 1 4080.95 3781)"/><path d="M0 0 0.000360892 407.137" stroke="#3A3A3A" stroke-width="5.72917" stroke-linecap="square" stroke-linejoin="miter" stroke-miterlimit="8" stroke-dasharray="17.1875 5.72917" stroke-opacity="1" fill="none" fill-rule="evenodd" transform="matrix(1 0 0 -1 3724 4188.14)"/><path d="M4056 4061 4056 4093.08" stroke="#3A3A3A" stroke-width="5.72917" stroke-linecap="butt" stroke-linejoin="miter" stroke-miterlimit="8" stroke-opacity="1" fill="none" fill-rule="evenodd"/><path d="M4052 4092 4139.58 4092" stroke="#3A3A3A" stroke-width="5.72917" stroke-linecap="butt" stroke-linejoin="miter" stroke-miterlimit="8" stroke-opacity="1" fill="none" fill-rule="evenodd"/><path d="M2.86458-1.60924e-05 2.86482 41.3251-2.86435 41.3251-2.86458 1.60924e-05ZM13.7502 36.7417 0.000360892 64.2417-13.7498 36.7418Z" fill="#3A3A3A" fill-rule="nonzero" fill-opacity="1" transform="matrix(-1 0 0 1 4140 4090)"/><path d="M22.9166-2.86456 40.1041-2.86454 40.1041 2.86462 22.9166 2.86461ZM45.8333-2.86454 63.0208-2.86452 63.0207 2.86465 45.8333 2.86463ZM68.7499-2.86451 85.9374-2.8645 85.9374 2.86467 68.7499 2.86465ZM91.6666-2.86449 108.854-2.86447 108.854 2.86469 91.6666 2.86468ZM114.583-2.86447 131.771-2.86445 131.771 2.86472 114.583 2.8647ZM137.5-2.86444 154.687-2.86443 154.687 2.86474 137.5 2.86472ZM160.417-2.86442 177.604-2.8644 177.604 2.86476 160.417 2.86475ZM183.333-2.8644 200.521-2.86438 200.521 2.86479 183.333 2.86477ZM206.25-2.86438 223.437-2.86436 223.437 2.86481 206.25 2.86479ZM229.167-2.86435 246.354-2.86433 246.354 2.86483 229.167 2.86481ZM252.083-2.86433 269.271-2.86431 269.271 2.86485 252.083 2.86484ZM275-2.86431 292.187-2.86429 292.187 2.86488 275 2.86486ZM297.917-2.86428 315.104-2.86427 315.104 2.8649 297.917 2.86488ZM320.833-2.86426 338.021-2.86424 338.021 2.86492 320.833 2.86491ZM343.75-2.86424 357.949-2.86422 357.949 2.86494 343.75 2.86493ZM27.5 13.75 0 0 27.5-13.75Z" fill="#3A3A3A" fill-rule="nonzero" fill-opacity="1" transform="matrix(-1 0 0 1 4086.95 4188)"/><path d="M4114.5 4192.5C4114.5 4178.14 4126.14 4166.5 4140.5 4166.5 4154.86 4166.5 4166.5 4178.14 4166.5 4192.5 4166.5 4206.86 4154.86 4218.5 4140.5 4218.5 4126.14 4218.5 4114.5 4206.86 4114.5 4192.5Z" stroke="#3A3A3A" stroke-width="6.875" stroke-linecap="butt" stroke-linejoin="miter" stroke-miterlimit="8" stroke-opacity="1" fill="none" fill-rule="evenodd"/><text fill="#000000" fill-opacity="1" font-family="Arial,Arial_MSFontService,sans-serif" font-style="normal" font-variant="normal" font-weight="700" font-stretch="normal" font-size="55" text-anchor="start" direction="ltr" writing-mode="lr-tb" unicode-bidi="normal" text-decoration="none" transform="matrix(0.676858 0.736114 -0.736114 0.676858 4116.03 4191)">+</text><path d="M4144.86 4218 4144.86 4291.85 4139.14 4291.85 4139.14 4218ZM4155.75 4287.27 4142 4314.77 4128.25 4287.27Z" fill="#3A3A3A" fill-rule="nonzero" fill-opacity="1"/><path d="M4023 3624C4023 3616.27 4029.27 3610 4037 3610L4285 3610C4292.73 3610 4299 3616.27 4299 3624L4299 3680C4299 3687.73 4292.73 3694 4285 3694L4037 3694C4029.27 3694 4023 3687.73 4023 3680Z" stroke="#042433" stroke-width="5.72917" stroke-linecap="butt" stroke-linejoin="miter" stroke-miterlimit="8" stroke-opacity="1" fill="#D37F55" fill-rule="evenodd" fill-opacity="0.6"/><text fill="#3A3A3A" fill-opacity="1" font-family="Arial,Arial_MSFontService,sans-serif" font-style="normal" font-variant="normal" font-weight="700" font-stretch="normal" font-size="55" text-anchor="start" direction="ltr" writing-mode="lr-tb" unicode-bidi="normal" text-decoration="none" transform="matrix(1 0 0 1 4072.43 3672)">Router</text><path d="M0 0 0.000360892 91.8442" stroke="#3A3A3A" stroke-width="5.72917" stroke-linecap="butt" stroke-linejoin="miter" stroke-miterlimit="8" stroke-opacity="1" fill="none" fill-rule="evenodd" transform="matrix(1 0 0 -1 4161 3610.84)"/><text fill="#3A3A3A" fill-opacity="1" font-family="Arial,Arial_MSFontService,sans-serif" font-style="normal" font-variant="normal" font-weight="400" font-stretch="normal" font-size="64" text-anchor="start" direction="ltr" writing-mode="lr-tb" unicode-bidi="normal" text-decoration="none" transform="matrix(1 0 0 1 3670.07 3553)">MoE Layer</text><path d="M4882.5 3481.34C4882.5 3463.2 4897.2 3448.5 4915.34 3448.5L4929.66 3448.5C4947.8 3448.5 4962.5 3463.2 4962.5 3481.34L4962.5 3488.66C4962.5 3506.8 4947.8 3521.5 4929.66 3521.5L4915.34 3521.5C4897.2 3521.5 4882.5 3506.8 4882.5 3488.66Z" stroke="#042433" stroke-width="6.875" stroke-linecap="butt" stroke-linejoin="miter" stroke-miterlimit="8" stroke-opacity="1" fill="#156082" fill-rule="evenodd" fill-opacity="1"/><path d="M4979.5 3481.34C4979.5 3463.2 4994.2 3448.5 5012.34 3448.5L5026.66 3448.5C5044.8 3448.5 5059.5 3463.2 5059.5 3481.34L5059.5 3488.66C5059.5 3506.8 5044.8 3521.5 5026.66 3521.5L5012.34 3521.5C4994.2 3521.5 4979.5 3506.8 4979.5 3488.66Z" stroke="#042433" stroke-width="6.875" stroke-linecap="butt" stroke-linejoin="miter" stroke-miterlimit="8" stroke-opacity="1" fill="#156082" fill-rule="evenodd" fill-opacity="0.901961"/><path d="M5076.5 3481.34C5076.5 3463.2 5091.2 3448.5 5109.34 3448.5L5123.66 3448.5C5141.8 3448.5 5156.5 3463.2 5156.5 3481.34L5156.5 3488.66C5156.5 3506.8 5141.8 3521.5 5123.66 3521.5L5109.34 3521.5C5091.2 3521.5 5076.5 3506.8 5076.5 3488.66Z" stroke="#042433" stroke-width="6.875" stroke-linecap="butt" stroke-linejoin="miter" stroke-miterlimit="8" stroke-opacity="1" fill="#156082" fill-rule="evenodd" fill-opacity="0.74902"/><path d="M5270.5 3481.34C5270.5 3463.2 5285.2 3448.5 5303.34 3448.5L5317.66 3448.5C5335.8 3448.5 5350.5 3463.2 5350.5 3481.34L5350.5 3488.66C5350.5 3506.8 5335.8 3521.5 5317.66 3521.5L5303.34 3521.5C5285.2 3521.5 5270.5 3506.8 5270.5 3488.66Z" stroke="#042433" stroke-width="6.875" stroke-linecap="butt" stroke-linejoin="miter" stroke-miterlimit="8" stroke-opacity="1" fill="#156082" fill-rule="evenodd" fill-opacity="0.54902"/><path d="M5173.5 3481.34C5173.5 3463.2 5188.2 3448.5 5206.34 3448.5L5220.66 3448.5C5238.8 3448.5 5253.5 3463.2 5253.5 3481.34L5253.5 3488.66C5253.5 3506.8 5238.8 3521.5 5220.66 3521.5L5206.34 3521.5C5188.2 3521.5 5173.5 3506.8 5173.5 3488.66Z" stroke="#042433" stroke-width="6.875" stroke-linecap="butt" stroke-linejoin="miter" stroke-miterlimit="8" stroke-opacity="1" fill="#156082" fill-rule="evenodd" fill-opacity="0.65098"/><path d="M5367.5 3481.34C5367.5 3463.2 5382.2 3448.5 5400.34 3448.5L5414.66 3448.5C5432.8 3448.5 5447.5 3463.2 5447.5 3481.34L5447.5 3488.66C5447.5 3506.8 5432.8 3521.5 5414.66 3521.5L5400.34 3521.5C5382.2 3521.5 5367.5 3506.8 5367.5 3488.66Z" stroke="#042433" stroke-width="6.875" stroke-linecap="butt" stroke-linejoin="miter" stroke-miterlimit="8" stroke-opacity="1" fill="#156082" fill-rule="evenodd" fill-opacity="0.4"/><path d="M4882.5 3579.79C4882.5 3561.41 4897.41 3546.5 4915.79 3546.5L4929.21 3546.5C4947.59 3546.5 4962.5 3561.41 4962.5 3579.79L4962.5 3587.21C4962.5 3605.59 4947.59 3620.5 4929.21 3620.5L4915.79 3620.5C4897.41 3620.5 4882.5 3605.59 4882.5 3587.21Z" stroke="#042433" stroke-width="6.875" stroke-linecap="butt" stroke-linejoin="miter" stroke-miterlimit="8" stroke-opacity="1" fill="#156082" fill-rule="evenodd" fill-opacity="1"/><path d="M4979.5 3579.79C4979.5 3561.41 4994.41 3546.5 5012.79 3546.5L5026.21 3546.5C5044.59 3546.5 5059.5 3561.41 5059.5 3579.79L5059.5 3587.21C5059.5 3605.59 5044.59 3620.5 5026.21 3620.5L5012.79 3620.5C4994.41 3620.5 4979.5 3605.59 4979.5 3587.21Z" stroke="#042433" stroke-width="6.875" stroke-linecap="butt" stroke-linejoin="miter" stroke-miterlimit="8" stroke-opacity="1" fill="#156082" fill-rule="evenodd" fill-opacity="0.901961"/><path d="M5076.5 3579.79C5076.5 3561.41 5091.41 3546.5 5109.79 3546.5L5123.21 3546.5C5141.59 3546.5 5156.5 3561.41 5156.5 3579.79L5156.5 3587.21C5156.5 3605.59 5141.59 3620.5 5123.21 3620.5L5109.79 3620.5C5091.41 3620.5 5076.5 3605.59 5076.5 3587.21Z" stroke="#042433" stroke-width="6.875" stroke-linecap="butt" stroke-linejoin="miter" stroke-miterlimit="8" stroke-opacity="1" fill="#156082" fill-rule="evenodd" fill-opacity="0.74902"/><path d="M5270.5 3579.79C5270.5 3561.41 5285.41 3546.5 5303.79 3546.5L5317.21 3546.5C5335.59 3546.5 5350.5 3561.41 5350.5 3579.79L5350.5 3587.21C5350.5 3605.59 5335.59 3620.5 5317.21 3620.5L5303.79 3620.5C5285.41 3620.5 5270.5 3605.59 5270.5 3587.21Z" stroke="#042433" stroke-width="6.875" stroke-linecap="butt" stroke-linejoin="miter" stroke-miterlimit="8" stroke-opacity="1" fill="#156082" fill-rule="evenodd" fill-opacity="0.54902"/><path d="M5173.5 3579.79C5173.5 3561.41 5188.41 3546.5 5206.79 3546.5L5220.21 3546.5C5238.59 3546.5 5253.5 3561.41 5253.5 3579.79L5253.5 3587.21C5253.5 3605.59 5238.59 3620.5 5220.21 3620.5L5206.79 3620.5C5188.41 3620.5 5173.5 3605.59 5173.5 3587.21Z" stroke="#042433" stroke-width="6.875" stroke-linecap="butt" stroke-linejoin="miter" stroke-miterlimit="8" stroke-opacity="1" fill="#156082" fill-rule="evenodd" fill-opacity="0.65098"/><path d="M5367.5 3579.79C5367.5 3561.41 5382.41 3546.5 5400.79 3546.5L5414.21 3546.5C5432.59 3546.5 5447.5 3561.41 5447.5 3579.79L5447.5 3587.21C5447.5 3605.59 5432.59 3620.5 5414.21 3620.5L5400.79 3620.5C5382.41 3620.5 5367.5 3605.59 5367.5 3587.21Z" stroke="#042433" stroke-width="6.875" stroke-linecap="butt" stroke-linejoin="miter" stroke-miterlimit="8" stroke-opacity="1" fill="#156082" fill-rule="evenodd" fill-opacity="0.4"/><path d="M4882.5 3678.79C4882.5 3660.41 4897.41 3645.5 4915.79 3645.5L4929.21 3645.5C4947.59 3645.5 4962.5 3660.41 4962.5 3678.79L4962.5 3686.21C4962.5 3704.59 4947.59 3719.5 4929.21 3719.5L4915.79 3719.5C4897.41 3719.5 4882.5 3704.59 4882.5 3686.21Z" stroke="#042433" stroke-width="6.875" stroke-linecap="butt" stroke-linejoin="miter" stroke-miterlimit="8" stroke-opacity="1" fill="#156082" fill-rule="evenodd" fill-opacity="1"/><path d="M4979.5 3678.79C4979.5 3660.41 4994.41 3645.5 5012.79 3645.5L5026.21 3645.5C5044.59 3645.5 5059.5 3660.41 5059.5 3678.79L5059.5 3686.21C5059.5 3704.59 5044.59 3719.5 5026.21 3719.5L5012.79 3719.5C4994.41 3719.5 4979.5 3704.59 4979.5 3686.21Z" stroke="#042433" stroke-width="6.875" stroke-linecap="butt" stroke-linejoin="miter" stroke-miterlimit="8" stroke-opacity="1" fill="#156082" fill-rule="evenodd" fill-opacity="0.901961"/><path d="M5076.5 3678.79C5076.5 3660.41 5091.41 3645.5 5109.79 3645.5L5123.21 3645.5C5141.59 3645.5 5156.5 3660.41 5156.5 3678.79L5156.5 3686.21C5156.5 3704.59 5141.59 3719.5 5123.21 3719.5L5109.79 3719.5C5091.41 3719.5 5076.5 3704.59 5076.5 3686.21Z" stroke="#042433" stroke-width="6.875" stroke-linecap="butt" stroke-linejoin="miter" stroke-miterlimit="8" stroke-opacity="1" fill="#156082" fill-rule="evenodd" fill-opacity="0.74902"/><path d="M5270.5 3678.79C5270.5 3660.41 5285.41 3645.5 5303.79 3645.5L5317.21 3645.5C5335.59 3645.5 5350.5 3660.41 5350.5 3678.79L5350.5 3686.21C5350.5 3704.59 5335.59 3719.5 5317.21 3719.5L5303.79 3719.5C5285.41 3719.5 5270.5 3704.59 5270.5 3686.21Z" stroke="#042433" stroke-width="6.875" stroke-linecap="butt" stroke-linejoin="miter" stroke-miterlimit="8" stroke-opacity="1" fill="#156082" fill-rule="evenodd" fill-opacity="0.54902"/><path d="M5173.5 3678.79C5173.5 3660.41 5188.41 3645.5 5206.79 3645.5L5220.21 3645.5C5238.59 3645.5 5253.5 3660.41 5253.5 3678.79L5253.5 3686.21C5253.5 3704.59 5238.59 3719.5 5220.21 3719.5L5206.79 3719.5C5188.41 3719.5 5173.5 3704.59 5173.5 3686.21Z" stroke="#042433" stroke-width="6.875" stroke-linecap="butt" stroke-linejoin="miter" stroke-miterlimit="8" stroke-opacity="1" fill="#156082" fill-rule="evenodd" fill-opacity="0.65098"/><path d="M5367.5 3678.79C5367.5 3660.41 5382.41 3645.5 5400.79 3645.5L5414.21 3645.5C5432.59 3645.5 5447.5 3660.41 5447.5 3678.79L5447.5 3686.21C5447.5 3704.59 5432.59 3719.5 5414.21 3719.5L5400.79 3719.5C5382.41 3719.5 5367.5 3704.59 5367.5 3686.21Z" stroke="#042433" stroke-width="6.875" stroke-linecap="butt" stroke-linejoin="miter" stroke-miterlimit="8" stroke-opacity="1" fill="#156082" fill-rule="evenodd" fill-opacity="0.4"/><path d="M5464.5 3579.79C5464.5 3561.41 5479.41 3546.5 5497.79 3546.5L5512.21 3546.5C5530.59 3546.5 5545.5 3561.41 5545.5 3579.79L5545.5 3587.21C5545.5 3605.59 5530.59 3620.5 5512.21 3620.5L5497.79 3620.5C5479.41 3620.5 5464.5 3605.59 5464.5 3587.21Z" stroke="#042433" stroke-width="6.875" stroke-linecap="butt" stroke-linejoin="miter" stroke-miterlimit="8" stroke-opacity="1" fill="#156082" fill-rule="evenodd" fill-opacity="0.301961"/><path d="M5464.5 3678.79C5464.5 3660.41 5479.41 3645.5 5497.79 3645.5L5512.21 3645.5C5530.59 3645.5 5545.5 3660.41 5545.5 3678.79L5545.5 3686.21C5545.5 3704.59 5530.59 3719.5 5512.21 3719.5L5497.79 3719.5C5479.41 3719.5 5464.5 3704.59 5464.5 3686.21Z" stroke="#042433" stroke-width="6.875" stroke-linecap="butt" stroke-linejoin="miter" stroke-miterlimit="8" stroke-opacity="1" fill="#156082" fill-rule="evenodd" fill-opacity="0.301961"/><path d="M5561.5 3678.79C5561.5 3660.41 5576.41 3645.5 5594.79 3645.5L5609.21 3645.5C5627.59 3645.5 5642.5 3660.41 5642.5 3678.79L5642.5 3686.21C5642.5 3704.59 5627.59 3719.5 5609.21 3719.5L5594.79 3719.5C5576.41 3719.5 5561.5 3704.59 5561.5 3686.21Z" stroke="#042433" stroke-width="6.875" stroke-linecap="butt" stroke-linejoin="miter" stroke-miterlimit="8" stroke-opacity="1" fill="#156082" fill-rule="evenodd" fill-opacity="0.2"/><path d="M5447.5 3481.06 5508.49 3481.06 5508.49 3523.23 5501.61 3523.23 5501.61 3484.5 5505.05 3487.94 5447.5 3487.94ZM5518.8 3518.65 5505.05 3546.15 5491.3 3518.65Z" fill="#156082" fill-rule="nonzero" fill-opacity="1"/><path d="M5545.5 3580.06 5605.62 3580.06 5605.62 3622.67 5598.75 3622.67 5598.75 3583.5 5602.19 3586.94 5545.5 3586.94ZM5615.94 3618.08 5602.19 3645.58 5588.44 3618.08Z" fill="#156082" fill-rule="nonzero" fill-opacity="1"/><path d="M4882.5 4009.99C4882.5 3992.6 4896.6 3978.5 4913.99 3978.5L4930.01 3978.5C4947.4 3978.5 4961.5 3992.6 4961.5 4009.99L4961.5 4017.01C4961.5 4034.4 4947.4 4048.5 4930.01 4048.5L4913.99 4048.5C4896.6 4048.5 4882.5 4034.4 4882.5 4017.01Z" stroke="#042433" stroke-width="6.875" stroke-linecap="butt" stroke-linejoin="miter" stroke-miterlimit="8" stroke-opacity="1" fill="#156082" fill-rule="evenodd" fill-opacity="1"/><path d="M4978.5 4009.99C4978.5 3992.6 4992.6 3978.5 5009.99 3978.5L5026.01 3978.5C5043.4 3978.5 5057.5 3992.6 5057.5 4009.99L5057.5 4017.01C5057.5 4034.4 5043.4 4048.5 5026.01 4048.5L5009.99 4048.5C4992.6 4048.5 4978.5 4034.4 4978.5 4017.01Z" stroke="#042433" stroke-width="6.875" stroke-linecap="butt" stroke-linejoin="miter" stroke-miterlimit="8" stroke-opacity="1" fill="#156082" fill-rule="evenodd" fill-opacity="0.701961"/><path d="M5073.5 4009.99C5073.5 3992.6 5087.6 3978.5 5104.99 3978.5L5122.01 3978.5C5139.4 3978.5 5153.5 3992.6 5153.5 4009.99L5153.5 4017.01C5153.5 4034.4 5139.4 4048.5 5122.01 4048.5L5104.99 4048.5C5087.6 4048.5 5073.5 4034.4 5073.5 4017.01Z" stroke="#042433" stroke-width="6.875" stroke-linecap="butt" stroke-linejoin="miter" stroke-miterlimit="8" stroke-opacity="1" fill="#156082" fill-rule="evenodd" fill-opacity="0.6"/><path d="M5170.5 4102.99C5170.5 4085.6 5184.6 4071.5 5201.99 4071.5L5219.01 4071.5C5236.4 4071.5 5250.5 4085.6 5250.5 4102.99L5250.5 4110.01C5250.5 4127.4 5236.4 4141.5 5219.01 4141.5L5201.99 4141.5C5184.6 4141.5 5170.5 4127.4 5170.5 4110.01Z" stroke="#042433" stroke-width="6.875" stroke-linecap="butt" stroke-linejoin="miter" stroke-miterlimit="8" stroke-opacity="1" fill="#156082" fill-rule="evenodd" fill-opacity="0.4"/><path d="M5363.5 4009.99C5363.5 3992.6 5377.6 3978.5 5394.99 3978.5L5412.01 3978.5C5429.4 3978.5 5443.5 3992.6 5443.5 4009.99L5443.5 4017.01C5443.5 4034.4 5429.4 4048.5 5412.01 4048.5L5394.99 4048.5C5377.6 4048.5 5363.5 4034.4 5363.5 4017.01Z" stroke="#042433" stroke-width="6.875" stroke-linecap="butt" stroke-linejoin="miter" stroke-miterlimit="8" stroke-opacity="1" fill="#156082" fill-rule="evenodd" fill-opacity="0.6"/><path d="M4882.5 4103.99C4882.5 4086.6 4896.6 4072.5 4913.99 4072.5L4930.01 4072.5C4947.4 4072.5 4961.5 4086.6 4961.5 4103.99L4961.5 4111.01C4961.5 4128.4 4947.4 4142.5 4930.01 4142.5L4913.99 4142.5C4896.6 4142.5 4882.5 4128.4 4882.5 4111.01Z" stroke="#042433" stroke-width="6.875" stroke-linecap="butt" stroke-linejoin="miter" stroke-miterlimit="8" stroke-opacity="1" fill="#156082" fill-rule="evenodd" fill-opacity="1"/><path d="M4978.5 4103.99C4978.5 4086.6 4992.6 4072.5 5009.99 4072.5L5026.01 4072.5C5043.4 4072.5 5057.5 4086.6 5057.5 4103.99L5057.5 4111.01C5057.5 4128.4 5043.4 4142.5 5026.01 4142.5L5009.99 4142.5C4992.6 4142.5 4978.5 4128.4 4978.5 4111.01Z" stroke="#042433" stroke-width="6.875" stroke-linecap="butt" stroke-linejoin="miter" stroke-miterlimit="8" stroke-opacity="1" fill="#156082" fill-rule="evenodd" fill-opacity="0.701961"/><path d="M5073.5 4103.99C5073.5 4086.6 5087.6 4072.5 5104.99 4072.5L5122.01 4072.5C5139.4 4072.5 5153.5 4086.6 5153.5 4103.99L5153.5 4111.01C5153.5 4128.4 5139.4 4142.5 5122.01 4142.5L5104.99 4142.5C5087.6 4142.5 5073.5 4128.4 5073.5 4111.01Z" stroke="#042433" stroke-width="6.875" stroke-linecap="butt" stroke-linejoin="miter" stroke-miterlimit="8" stroke-opacity="1" fill="#156082" fill-rule="evenodd" fill-opacity="0.6"/><path d="M5266.5 4196.99C5266.5 4179.6 5280.6 4165.5 5297.99 4165.5L5314.01 4165.5C5331.4 4165.5 5345.5 4179.6 5345.5 4196.99L5345.5 4204.01C5345.5 4221.4 5331.4 4235.5 5314.01 4235.5L5297.99 4235.5C5280.6 4235.5 5266.5 4221.4 5266.5 4204.01Z" stroke="#042433" stroke-width="6.875" stroke-linecap="butt" stroke-linejoin="miter" stroke-miterlimit="8" stroke-opacity="1" fill="#156082" fill-rule="evenodd" fill-opacity="0.2"/><path d="M5170.5 4196.99C5170.5 4179.6 5184.6 4165.5 5201.99 4165.5L5219.01 4165.5C5236.4 4165.5 5250.5 4179.6 5250.5 4196.99L5250.5 4204.01C5250.5 4221.4 5236.4 4235.5 5219.01 4235.5L5201.99 4235.5C5184.6 4235.5 5170.5 4221.4 5170.5 4204.01Z" stroke="#042433" stroke-width="6.875" stroke-linecap="butt" stroke-linejoin="miter" stroke-miterlimit="8" stroke-opacity="1" fill="#156082" fill-rule="evenodd" fill-opacity="0.4"/><path d="M5363.5 4103.99C5363.5 4086.6 5377.6 4072.5 5394.99 4072.5L5412.01 4072.5C5429.4 4072.5 5443.5 4086.6 5443.5 4103.99L5443.5 4111.01C5443.5 4128.4 5429.4 4142.5 5412.01 4142.5L5394.99 4142.5C5377.6 4142.5 5363.5 4128.4 5363.5 4111.01Z" stroke="#042433" stroke-width="6.875" stroke-linecap="butt" stroke-linejoin="miter" stroke-miterlimit="8" stroke-opacity="1" fill="#156082" fill-rule="evenodd" fill-opacity="0.6"/><path d="M4882.5 4197.99C4882.5 4180.6 4896.6 4166.5 4913.99 4166.5L4930.01 4166.5C4947.4 4166.5 4961.5 4180.6 4961.5 4197.99L4961.5 4205.01C4961.5 4222.4 4947.4 4236.5 4930.01 4236.5L4913.99 4236.5C4896.6 4236.5 4882.5 4222.4 4882.5 4205.01Z" stroke="#042433" stroke-width="6.875" stroke-linecap="butt" stroke-linejoin="miter" stroke-miterlimit="8" stroke-opacity="1" fill="#156082" fill-rule="evenodd" fill-opacity="1"/><path d="M4978.5 4197.99C4978.5 4180.6 4992.6 4166.5 5009.99 4166.5L5026.01 4166.5C5043.4 4166.5 5057.5 4180.6 5057.5 4197.99L5057.5 4205.01C5057.5 4222.4 5043.4 4236.5 5026.01 4236.5L5009.99 4236.5C4992.6 4236.5 4978.5 4222.4 4978.5 4205.01Z" stroke="#042433" stroke-width="6.875" stroke-linecap="butt" stroke-linejoin="miter" stroke-miterlimit="8" stroke-opacity="1" fill="#156082" fill-rule="evenodd" fill-opacity="0.701961"/><path d="M5073.5 4197.99C5073.5 4180.6 5087.6 4166.5 5104.99 4166.5L5122.01 4166.5C5139.4 4166.5 5153.5 4180.6 5153.5 4197.99L5153.5 4205.01C5153.5 4222.4 5139.4 4236.5 5122.01 4236.5L5104.99 4236.5C5087.6 4236.5 5073.5 4222.4 5073.5 4205.01Z" stroke="#042433" stroke-width="6.875" stroke-linecap="butt" stroke-linejoin="miter" stroke-miterlimit="8" stroke-opacity="1" fill="#156082" fill-rule="evenodd" fill-opacity="0.6"/><path d="M5363.5 4197.99C5363.5 4180.6 5377.6 4166.5 5394.99 4166.5L5412.01 4166.5C5429.4 4166.5 5443.5 4180.6 5443.5 4197.99L5443.5 4205.01C5443.5 4222.4 5429.4 4236.5 5412.01 4236.5L5394.99 4236.5C5377.6 4236.5 5363.5 4222.4 5363.5 4205.01Z" stroke="#042433" stroke-width="6.875" stroke-linecap="butt" stroke-linejoin="miter" stroke-miterlimit="8" stroke-opacity="1" fill="#156082" fill-rule="evenodd" fill-opacity="0.6"/><path d="M5554.5 4009.99C5554.5 3992.6 5568.6 3978.5 5585.99 3978.5L5603.01 3978.5C5620.4 3978.5 5634.5 3992.6 5634.5 4009.99L5634.5 4017.01C5634.5 4034.4 5620.4 4048.5 5603.01 4048.5L5585.99 4048.5C5568.6 4048.5 5554.5 4034.4 5554.5 4017.01Z" stroke="#042433" stroke-width="6.875" stroke-linecap="butt" stroke-linejoin="miter" stroke-miterlimit="8" stroke-opacity="1" fill="#156082" fill-rule="evenodd" fill-opacity="1"/><path d="M5458.5 4009.99C5458.5 3992.6 5472.6 3978.5 5489.99 3978.5L5507.01 3978.5C5524.4 3978.5 5538.5 3992.6 5538.5 4009.99L5538.5 4017.01C5538.5 4034.4 5524.4 4048.5 5507.01 4048.5L5489.99 4048.5C5472.6 4048.5 5458.5 4034.4 5458.5 4017.01Z" stroke="#042433" stroke-width="6.875" stroke-linecap="butt" stroke-linejoin="miter" stroke-miterlimit="8" stroke-opacity="1" fill="#156082" fill-rule="evenodd" fill-opacity="0.701961"/><path d="M5554.5 4103.99C5554.5 4086.6 5568.6 4072.5 5585.99 4072.5L5603.01 4072.5C5620.4 4072.5 5634.5 4086.6 5634.5 4103.99L5634.5 4111.01C5634.5 4128.4 5620.4 4142.5 5603.01 4142.5L5585.99 4142.5C5568.6 4142.5 5554.5 4128.4 5554.5 4111.01Z" stroke="#042433" stroke-width="6.875" stroke-linecap="butt" stroke-linejoin="miter" stroke-miterlimit="8" stroke-opacity="1" fill="#156082" fill-rule="evenodd" fill-opacity="1"/><path d="M5458.5 4103.99C5458.5 4086.6 5472.6 4072.5 5489.99 4072.5L5507.01 4072.5C5524.4 4072.5 5538.5 4086.6 5538.5 4103.99L5538.5 4111.01C5538.5 4128.4 5524.4 4142.5 5507.01 4142.5L5489.99 4142.5C5472.6 4142.5 5458.5 4128.4 5458.5 4111.01Z" stroke="#042433" stroke-width="6.875" stroke-linecap="butt" stroke-linejoin="miter" stroke-miterlimit="8" stroke-opacity="1" fill="#156082" fill-rule="evenodd" fill-opacity="0.701961"/><path d="M5554.5 4197.99C5554.5 4180.6 5568.6 4166.5 5585.99 4166.5L5603.01 4166.5C5620.4 4166.5 5634.5 4180.6 5634.5 4197.99L5634.5 4205.01C5634.5 4222.4 5620.4 4236.5 5603.01 4236.5L5585.99 4236.5C5568.6 4236.5 5554.5 4222.4 5554.5 4205.01Z" stroke="#042433" stroke-width="6.875" stroke-linecap="butt" stroke-linejoin="miter" stroke-miterlimit="8" stroke-opacity="1" fill="#156082" fill-rule="evenodd" fill-opacity="1"/><path d="M5458.5 4197.99C5458.5 4180.6 5472.6 4166.5 5489.99 4166.5L5507.01 4166.5C5524.4 4166.5 5538.5 4180.6 5538.5 4197.99L5538.5 4205.01C5538.5 4222.4 5524.4 4236.5 5507.01 4236.5L5489.99 4236.5C5472.6 4236.5 5458.5 4222.4 5458.5 4205.01Z" stroke="#042433" stroke-width="6.875" stroke-linecap="butt" stroke-linejoin="miter" stroke-miterlimit="8" stroke-opacity="1" fill="#156082" fill-rule="evenodd" fill-opacity="0.701961"/><path d="M5164.29 3972.85 5349.34 3972.85 5349.34 4051.85 5164.29 4051.85Z" fill="#C0C0C0" fill-rule="evenodd" fill-opacity="1"/><text fill="#000000" fill-opacity="1" font-family="Aptos,Aptos_MSFontService,sans-serif" font-style="normal" font-variant="normal" font-weight="400" font-stretch="normal" font-size="64" text-anchor="start" direction="ltr" writing-mode="lr-tb" unicode-bidi="normal" text-decoration="none" transform="matrix(1 0 0 1 5164.29 4034)">[Mask]</text><path d="M4978 3936.99 5146.76 3936.99 5146.76 3945.01 4978 3945.01ZM5142.17 3927.25 5169.67 3941 5142.17 3954.75Z" fill="#156082" fill-rule="nonzero" fill-opacity="1"/><path d="M5527.67 3944.01 5358.92 3944.01 5358.92 3935.99 5527.67 3935.99ZM5363.5 3953.75 5336 3940 5363.5 3926.25Z" fill="#156082" fill-rule="nonzero" fill-opacity="1"/><path d="M1807.3 3292.5C1849.38 3292.5 1883.5 3326.62 1883.5 3368.7L1883.5 4233.3C1883.5 4275.38 1849.38 4309.5 1807.3 4309.5L1377.7 4309.5C1335.62 4309.5 1301.5 4275.38 1301.5 4233.3L1301.5 3368.7C1301.5 3326.62 1335.62 3292.5 1377.7 3292.5Z" stroke="#595959" stroke-width="6.875" stroke-linecap="butt" stroke-linejoin="miter" stroke-miterlimit="8" stroke-opacity="1" fill="#F2F2F2" fill-rule="evenodd" fill-opacity="1"/><path d="M1352.5 3450.76C1352.5 3415.27 1381.27 3386.5 1416.76 3386.5L1766.24 3386.5C1801.73 3386.5 1830.5 3415.27 1830.5 3450.76L1830.5 3486.24C1830.5 3521.73 1801.73 3550.5 1766.24 3550.5L1416.76 3550.5C1381.27 3550.5 1352.5 3521.73 1352.5 3486.24Z" stroke="#595959" stroke-width="6.875" stroke-linecap="butt" stroke-linejoin="miter" stroke-miterlimit="8" stroke-opacity="1" fill="#D1D1D1" fill-rule="evenodd" fill-opacity="1"/><text fill="#3A3A3A" fill-opacity="1" font-family="Arial,Arial_MSFontService,sans-serif" font-style="normal" font-variant="normal" font-weight="400" font-stretch="normal" font-size="50" text-anchor="start" direction="ltr" writing-mode="lr-tb" unicode-bidi="normal" text-decoration="none" transform="matrix(1 0 0 1 1439.57 3485)">Self</text><text fill="#3A3A3A" fill-opacity="1" font-family="Arial,Arial_MSFontService,sans-serif" font-style="normal" font-variant="normal" font-weight="400" font-stretch="normal" font-size="50" text-anchor="start" direction="ltr" writing-mode="lr-tb" unicode-bidi="normal" text-decoration="none" transform="matrix(1 0 0 1 1526.65 3485)">-</text><text fill="#3A3A3A" fill-opacity="1" font-family="Arial,Arial_MSFontService,sans-serif" font-style="normal" font-variant="normal" font-weight="400" font-stretch="normal" font-size="50" text-anchor="start" direction="ltr" writing-mode="lr-tb" unicode-bidi="normal" text-decoration="none" transform="matrix(1 0 0 1 1543.26 3485)">Attention</text><path d="M1587.5 3272.5 1587.5 3382.89" stroke="#3A3A3A" stroke-width="6.875" stroke-linecap="butt" stroke-linejoin="miter" stroke-miterlimit="8" stroke-opacity="1" fill="none" fill-rule="evenodd"/><path d="M1586.5 3992.5 1587.85 4105.83" stroke="#3A3A3A" stroke-width="6.875" stroke-linecap="butt" stroke-linejoin="miter" stroke-miterlimit="8" stroke-opacity="1" fill="none" fill-rule="evenodd"/><path d="M1587.5 3550.5 1587.5 3767.96" stroke="#3A3A3A" stroke-width="6.875" stroke-linecap="butt" stroke-linejoin="miter" stroke-miterlimit="8" stroke-opacity="1" fill="none" fill-rule="evenodd"/><path d="M1587.5 4219.5 1587.5 4356.14" stroke="#3A3A3A" stroke-width="6.875" stroke-linecap="butt" stroke-linejoin="miter" stroke-miterlimit="8" stroke-opacity="1" fill="none" fill-rule="evenodd"/><g filter="url(#fx3)" transform="translate(1070 3357)"><g><g><path d="M-0.121582 0 22.6953-59.4131 31.1655-59.4131 55.4819 0 46.5254 0 39.5952-17.9941 14.752-17.9941 8.22705 0ZM17.0215-24.3975 37.1636-24.3975 30.9629-40.8516C29.0716-45.8499 27.6667-49.9567 26.748-53.1719 25.9915-49.3623 24.9243-45.5797 23.5464-41.8242Z" fill="#000000" fill-rule="nonzero" fill-opacity="1" transform="matrix(1 0 0 1 56.0828 112)"/></g></g></g><text fill="#000000" fill-opacity="1" font-family="Arial,Arial_MSFontService,sans-serif" font-style="normal" font-variant="normal" font-weight="400" font-stretch="normal" font-size="83" text-anchor="start" direction="ltr" writing-mode="lr-tb" unicode-bidi="normal" text-decoration="none" transform="matrix(1 0 0 1 1124.1 3467)">A</text><g filter="url(#fx4)" transform="translate(1063 3592)"><g><g><path d="M45.3906-59.4131 53.2529-59.4131 53.2529-25.0864C53.2529-19.1154 52.5775-14.3737 51.2266-10.8613 49.8756-7.34896 47.4372-4.49178 43.9114-2.28979 40.3855-0.0878093 35.7586 1.01318 30.0308 1.01318 24.465 1.01318 19.9124 0.0540364 16.373-1.86426 12.8337-3.78255 10.3075-6.55867 8.79443-10.1926 7.28141-13.8266 6.5249-18.7912 6.5249-25.0864L6.5249-59.4131 14.3872-59.4131 14.3872-25.127C14.3872-19.9665 14.8668-16.1637 15.8259-13.7185 16.7851-11.2734 18.4332-9.38883 20.7703-8.06494 23.1073-6.74105 25.9645-6.0791 29.3418-6.0791 35.1237-6.0791 39.244-7.38948 41.7026-10.0103 44.1613-12.631 45.3906-17.6699 45.3906-25.127Z" fill="#000000" fill-rule="nonzero" fill-opacity="1" transform="matrix(1 0 0 1 56.9899 111)"/></g></g></g><text fill="#000000" fill-opacity="1" font-family="Arial,Arial_MSFontService,sans-serif" font-style="normal" font-variant="normal" font-weight="400" font-stretch="normal" font-size="83" text-anchor="start" direction="ltr" writing-mode="lr-tb" unicode-bidi="normal" text-decoration="none" transform="matrix(1 0 0 1 1118.01 3701)">U</text><g filter="url(#fx5)" transform="translate(1043 4167)"><g><g><path d="M9.68603 0 9.68603-8.3081 17.9941-8.3081 17.9941 0ZM37.3662 0 37.3662-8.3081 45.6743-8.3081 45.6743 0ZM65.0059 0 65.0059-8.3081 73.3545-8.3081 73.3545 0Z" fill="#000000" fill-rule="nonzero" fill-opacity="1" transform="matrix(1 0 0 1 56.7878 111)"/></g></g></g><text fill="#000000" fill-opacity="1" font-family="Arial,Arial_MSFontService,sans-serif" font-style="normal" font-variant="normal" font-weight="400" font-stretch="normal" font-size="83" text-anchor="start" direction="ltr" writing-mode="lr-tb" unicode-bidi="normal" text-decoration="none" transform="matrix(1 0 0 1 1097.81 4276)">…</text><path d="M1199 3425.99 1274.82 3425.99 1274.82 3434.01 1199 3434.01ZM1270.24 3416.25 1297.74 3430 1270.24 3443.75Z" fill="#262626" fill-rule="nonzero" fill-opacity="1"/><path d="M1199.1 4133.99 1274.93 4135.88 1274.73 4143.9 1198.9 4142.01ZM1270.59 4126.03 1297.74 4140.46 1269.91 4153.52Z" fill="#262626" fill-rule="nonzero" fill-opacity="1"/><path d="M1199.1 3898.99 1274.93 3900.88 1274.73 3908.9 1198.9 3907.01ZM1270.59 3891.03 1297.74 3905.46 1269.91 3918.52Z" fill="#262626" fill-rule="nonzero" fill-opacity="1"/><path d="M1199.1 3663.99 1274.93 3665.88 1274.73 3673.9 1198.9 3672.01ZM1270.59 3656.03 1297.74 3670.46 1269.91 3683.52Z" fill="#262626" fill-rule="nonzero" fill-opacity="1"/><text fill="#262626" fill-opacity="1" font-family="Arial,Arial_MSFontService,sans-serif" font-style="normal" font-variant="normal" font-weight="400" font-stretch="normal" font-size="73" text-anchor="start" direction="ltr" writing-mode="lr-tb" unicode-bidi="normal" text-decoration="none" transform="matrix(1 0 0 1 1375.59 3224)">Dense Model</text><g filter="url(#fx6)" transform="translate(1063 3814)"><g><g><path d="M34.2051-23.3032 34.2051-30.2739 59.3726-30.3145 59.3726-8.26758C55.5089-5.1875 51.5238-2.87069 47.417-1.31714 43.3102 0.236409 39.0954 1.01318 34.7725 1.01318 28.9365 1.01318 23.6342-0.23641 18.8655-2.7356 14.0968-5.23478 10.4966-8.84847 8.06494-13.5767 5.6333-18.3048 4.41748-23.5869 4.41748-29.4228 4.41748-35.2048 5.62655-40.6016 8.04468-45.6135 10.4628-50.6254 13.9414-54.3472 18.4805-56.7788 23.0195-59.2104 28.2476-60.4263 34.1645-60.4263 38.4604-60.4263 42.3443-59.7305 45.8162-58.3391 49.288-56.9477 52.0101-55.0091 53.9824-52.5234 55.9547-50.0378 57.4543-46.7956 58.481-42.7969L51.3887-40.8516C50.4971-43.8776 49.3893-46.2552 48.0654-47.9844 46.7415-49.7135 44.8503-51.0982 42.3916-52.1384 39.9329-53.1786 37.2041-53.6987 34.2051-53.6987 30.6117-53.6987 27.5046-53.1516 24.8838-52.0574 22.263-50.9631 20.1488-49.5244 18.5413-47.7412 16.9337-45.958 15.6841-43.9992 14.7925-41.8647 13.2795-38.1903 12.5229-34.2051 12.5229-29.9092 12.5229-24.6136 13.4348-20.1826 15.2585-16.6162 17.0823-13.0498 19.7368-10.402 23.2222-8.67285 26.7075-6.94368 30.409-6.0791 34.3267-6.0791 37.7309-6.0791 41.0542-6.73429 44.2964-8.04468 47.5386-9.35506 49.9972-10.7533 51.6724-12.2393L51.6724-23.3032Z" fill="#000000" fill-rule="nonzero" fill-opacity="1" transform="matrix(1 0 0 1 56.3806 112)"/></g></g></g><text fill="#000000" fill-opacity="1" font-family="Arial,Arial_MSFontService,sans-serif" font-style="normal" font-variant="normal" font-weight="400" font-stretch="normal" font-size="83" text-anchor="start" direction="ltr" writing-mode="lr-tb" unicode-bidi="normal" text-decoration="none" transform="matrix(1 0 0 1 1117.4 3924)">G</text><g filter="url(#fx7)" transform="translate(1061 4049)"><g><g><path d="M48.7949-20.8311 56.6572-18.8452C55.0091-12.3879 52.0439-7.46378 47.7615-4.073 43.4791-0.68221 38.2443 1.01318 32.0571 1.01318 25.6538 1.01318 20.446-0.290446 16.4338-2.8977 12.4216-5.50496 9.36857-9.28076 7.27466-14.2251 5.18075-19.1694 4.13379-24.4785 4.13379-30.1523 4.13379-36.3395 5.31584-41.7364 7.67993-46.343 10.044-50.9496 13.4078-54.4485 17.7712-56.8396 22.1347-59.2307 26.9372-60.4263 32.1787-60.4263 38.1227-60.4263 43.1211-58.9132 47.1738-55.8872 51.2266-52.8612 54.05-48.6058 55.644-43.1211L47.9033-41.2974C46.5254-45.6203 44.526-48.7679 41.9053-50.7402 39.2845-52.7126 35.9883-53.6987 32.0166-53.6987 27.4505-53.6987 23.6342-52.6045 20.5676-50.416 17.5011-48.2275 15.3464-45.2893 14.1035-41.6013 12.8607-37.9133 12.2393-34.1105 12.2393-30.1929 12.2393-25.1405 12.9755-20.7297 14.448-16.9607 15.9205-13.1916 18.2103-10.375 21.3174-8.51074 24.4245-6.64648 27.7882-5.71435 31.4087-5.71435 35.8127-5.71435 39.5412-6.98421 42.5942-9.52392 45.6473-12.0636 47.7142-15.8327 48.7949-20.8311Z" fill="#000000" fill-rule="nonzero" fill-opacity="1" transform="matrix(1 0 0 1 56.8702 111)"/></g></g></g><text fill="#000000" fill-opacity="1" font-family="Arial,Arial_MSFontService,sans-serif" font-style="normal" font-variant="normal" font-weight="400" font-stretch="normal" font-size="83" text-anchor="start" direction="ltr" writing-mode="lr-tb" unicode-bidi="normal" text-decoration="none" transform="matrix(1 0 0 1 1115.89 4158)">C</text><path d="M1393.5 3644.72C1393.5 3617.54 1415.54 3595.5 1442.72 3595.5L1740.28 3595.5C1767.46 3595.5 1789.5 3617.54 1789.5 3644.72L1789.5 3666.28C1789.5 3693.47 1767.46 3715.5 1740.28 3715.5L1442.72 3715.5C1415.54 3715.5 1393.5 3693.47 1393.5 3666.28Z" stroke="#595959" stroke-width="6.875" stroke-linecap="butt" stroke-linejoin="miter" stroke-miterlimit="8" stroke-opacity="1" fill="#D1D1D1" fill-rule="evenodd" fill-opacity="1"/><text fill="#3A3A3A" fill-opacity="1" font-family="Arial,Arial_MSFontService,sans-serif" font-style="normal" font-variant="normal" font-weight="400" font-stretch="normal" font-size="50" text-anchor="start" direction="ltr" writing-mode="lr-tb" unicode-bidi="normal" text-decoration="none" transform="matrix(1 0 0 1 1541.54 3674)">FFN</text><text fill="#000000" fill-opacity="1" font-family="Arial,Arial_MSFontService,sans-serif" font-style="normal" font-variant="normal" font-weight="400" font-stretch="normal" font-size="64" text-anchor="start" direction="ltr" writing-mode="lr-tb" unicode-bidi="normal" text-decoration="none" transform="matrix(1 0 0 1 4892.53 3366)">Autoregressive</text><text fill="#000000" fill-opacity="1" font-family="Arial,Arial_MSFontService,sans-serif" font-style="normal" font-variant="normal" font-weight="400" font-stretch="normal" font-size="64" text-anchor="start" direction="ltr" writing-mode="lr-tb" unicode-bidi="normal" text-decoration="none" transform="matrix(1 0 0 1 5337.11 3366)">Generation</text><text fill="#000000" fill-opacity="1" font-family="Arial,Arial_MSFontService,sans-serif" font-style="normal" font-variant="normal" font-weight="400" font-stretch="normal" font-size="64" text-anchor="start" direction="ltr" writing-mode="lr-tb" unicode-bidi="normal" text-decoration="none" transform="matrix(1 0 0 1 4979.36 3865)">Infilling Generation</text><path d="M2040 3137 2044.84 4414.27" stroke="#747474" stroke-width="10.3125" stroke-linecap="square" stroke-linejoin="miter" stroke-miterlimit="8" stroke-dasharray="30.9375 10.3125" stroke-opacity="1" fill="none" fill-rule="evenodd"/><text fill="#3A3A3A" fill-opacity="1" font-family="Arial,Arial_MSFontService,sans-serif" font-style="normal" font-variant="normal" font-weight="400" font-stretch="normal" font-size="64" text-anchor="start" direction="ltr" writing-mode="lr-tb" unicode-bidi="normal" text-decoration="none" transform="matrix(1 0 0 1 2247.7 3301)">Control tags</text><path d="M1352.5 3956.76C1352.5 3921.27 1381.27 3892.5 1416.76 3892.5L1766.24 3892.5C1801.73 3892.5 1830.5 3921.27 1830.5 3956.76L1830.5 3992.24C1830.5 4027.73 1801.73 4056.5 1766.24 4056.5L1416.76 4056.5C1381.27 4056.5 1352.5 4027.73 1352.5 3992.24Z" stroke="#595959" stroke-width="6.875" stroke-linecap="butt" stroke-linejoin="miter" stroke-miterlimit="8" stroke-opacity="1" fill="#D1D1D1" fill-rule="evenodd" fill-opacity="1"/><text fill="#3A3A3A" fill-opacity="1" font-family="Arial,Arial_MSFontService,sans-serif" font-style="normal" font-variant="normal" font-weight="400" font-stretch="normal" font-size="50" text-anchor="start" direction="ltr" writing-mode="lr-tb" unicode-bidi="normal" text-decoration="none" transform="matrix(1 0 0 1 1439.57 3990)">Self</text><text fill="#3A3A3A" fill-opacity="1" font-family="Arial,Arial_MSFontService,sans-serif" font-style="normal" font-variant="normal" font-weight="400" font-stretch="normal" font-size="50" text-anchor="start" direction="ltr" writing-mode="lr-tb" unicode-bidi="normal" text-decoration="none" transform="matrix(1 0 0 1 1526.65 3990)">-</text><text fill="#3A3A3A" fill-opacity="1" font-family="Arial,Arial_MSFontService,sans-serif" font-style="normal" font-variant="normal" font-weight="400" font-stretch="normal" font-size="50" text-anchor="start" direction="ltr" writing-mode="lr-tb" unicode-bidi="normal" text-decoration="none" transform="matrix(1 0 0 1 1543.26 3990)">Attention</text><path d="M1393.5 4150.72C1393.5 4123.54 1415.54 4101.5 1442.72 4101.5L1740.28 4101.5C1767.46 4101.5 1789.5 4123.54 1789.5 4150.72L1789.5 4172.28C1789.5 4199.46 1767.46 4221.5 1740.28 4221.5L1442.72 4221.5C1415.54 4221.5 1393.5 4199.46 1393.5 4172.28Z" stroke="#595959" stroke-width="6.875" stroke-linecap="butt" stroke-linejoin="miter" stroke-miterlimit="8" stroke-opacity="1" fill="#D1D1D1" fill-rule="evenodd" fill-opacity="1"/><text fill="#3A3A3A" fill-opacity="1" font-family="Arial,Arial_MSFontService,sans-serif" font-style="normal" font-variant="normal" font-weight="400" font-stretch="normal" font-size="50" text-anchor="start" direction="ltr" writing-mode="lr-tb" unicode-bidi="normal" text-decoration="none" transform="matrix(1 0 0 1 1541.54 4180)">FFN</text><path d="M1339.5 3423.5C1339.5 3387.6 1368.6 3358.5 1404.5 3358.5L1778.5 3358.5C1814.4 3358.5 1843.5 3387.6 1843.5 3423.5L1843.5 3683.5C1843.5 3719.4 1814.4 3748.5 1778.5 3748.5L1404.5 3748.5C1368.6 3748.5 1339.5 3719.4 1339.5 3683.5Z" stroke="#042433" stroke-width="6.875" stroke-linecap="butt" stroke-linejoin="miter" stroke-miterlimit="8" stroke-dasharray="27.5 20.625" stroke-opacity="1" fill="none" fill-rule="evenodd"/><path d="M1337.5 3929.33C1337.5 3893.53 1366.53 3864.5 1402.33 3864.5L1777.67 3864.5C1813.47 3864.5 1842.5 3893.53 1842.5 3929.33L1842.5 4188.67C1842.5 4224.47 1813.47 4253.5 1777.67 4253.5L1402.33 4253.5C1366.53 4253.5 1337.5 4224.47 1337.5 4188.67Z" stroke="#042433" stroke-width="6.875" stroke-linecap="butt" stroke-linejoin="miter" stroke-miterlimit="8" stroke-dasharray="27.5 20.625" stroke-opacity="1" fill="none" fill-rule="evenodd"/><path d="M3055.5 4150.69C3055.5 4127.94 3073.94 4109.5 3096.69 4109.5L3410.31 4109.5C3433.06 4109.5 3451.5 4127.94 3451.5 4150.69L3451.5 4181.31C3451.5 4204.06 3433.06 4222.5 3410.31 4222.5L3096.69 4222.5C3073.94 4222.5 3055.5 4204.06 3055.5 4181.31Z" stroke="#595959" stroke-width="6.875" stroke-linecap="butt" stroke-linejoin="miter" stroke-miterlimit="8" stroke-opacity="1" fill="#3B7D23" fill-rule="evenodd" fill-opacity="0.2"/><text fill="#3A3A3A" fill-opacity="1" font-family="Arial,Arial_MSFontService,sans-serif" font-style="normal" font-variant="normal" font-weight="400" font-stretch="normal" font-size="64" text-anchor="start" direction="ltr" writing-mode="lr-tb" unicode-bidi="normal" text-decoration="none" transform="matrix(1 0 0 1 3187.26 4189)">MoE</text><path d="M3252.5 3996.5 3253.99 4109.83" stroke="#3A3A3A" stroke-width="6.875" stroke-linecap="butt" stroke-linejoin="miter" stroke-miterlimit="8" stroke-opacity="1" fill="none" fill-rule="evenodd"/><path d="M0 0 0.146522 136.64" stroke="#3A3A3A" stroke-width="6.875" stroke-linecap="butt" stroke-linejoin="miter" stroke-miterlimit="8" stroke-opacity="1" fill="none" fill-rule="evenodd" transform="matrix(-1 0 0 1 3253.65 4222.5)"/><path d="M3014.5 3448.15C3014.5 3412.44 3043.44 3383.5 3079.15 3383.5L3427.85 3383.5C3463.56 3383.5 3492.5 3412.44 3492.5 3448.15L3492.5 3483.85C3492.5 3519.56 3463.56 3548.5 3427.85 3548.5L3079.15 3548.5C3043.44 3548.5 3014.5 3519.56 3014.5 3483.85Z" stroke="#595959" stroke-width="6.875" stroke-linecap="butt" stroke-linejoin="miter" stroke-miterlimit="8" stroke-opacity="1" fill="#D1D1D1" fill-rule="evenodd" fill-opacity="1"/><text fill="#3A3A3A" fill-opacity="1" font-family="Arial,Arial_MSFontService,sans-serif" font-style="normal" font-variant="normal" font-weight="400" font-stretch="normal" font-size="50" text-anchor="start" direction="ltr" writing-mode="lr-tb" unicode-bidi="normal" text-decoration="none" transform="matrix(1 0 0 1 3101.9 3488)">Self</text><text fill="#3A3A3A" fill-opacity="1" font-family="Arial,Arial_MSFontService,sans-serif" font-style="normal" font-variant="normal" font-weight="400" font-stretch="normal" font-size="50" text-anchor="start" direction="ltr" writing-mode="lr-tb" unicode-bidi="normal" text-decoration="none" transform="matrix(1 0 0 1 3188.98 3488)">-</text><text fill="#3A3A3A" fill-opacity="1" font-family="Arial,Arial_MSFontService,sans-serif" font-style="normal" font-variant="normal" font-weight="400" font-stretch="normal" font-size="50" text-anchor="start" direction="ltr" writing-mode="lr-tb" unicode-bidi="normal" text-decoration="none" transform="matrix(1 0 0 1 3205.59 3488)">Attention</text><path d="M3014.5 3954.15C3014.5 3918.44 3043.44 3889.5 3079.15 3889.5L3427.85 3889.5C3463.56 3889.5 3492.5 3918.44 3492.5 3954.15L3492.5 3989.85C3492.5 4025.56 3463.56 4054.5 3427.85 4054.5L3079.15 4054.5C3043.44 4054.5 3014.5 4025.56 3014.5 3989.85Z" stroke="#595959" stroke-width="6.875" stroke-linecap="butt" stroke-linejoin="miter" stroke-miterlimit="8" stroke-opacity="1" fill="#D1D1D1" fill-rule="evenodd" fill-opacity="1"/><text fill="#3A3A3A" fill-opacity="1" font-family="Arial,Arial_MSFontService,sans-serif" font-style="normal" font-variant="normal" font-weight="400" font-stretch="normal" font-size="50" text-anchor="start" direction="ltr" writing-mode="lr-tb" unicode-bidi="normal" text-decoration="none" transform="matrix(1 0 0 1 3101.9 3988)">Self</text><text fill="#3A3A3A" fill-opacity="1" font-family="Arial,Arial_MSFontService,sans-serif" font-style="normal" font-variant="normal" font-weight="400" font-stretch="normal" font-size="50" text-anchor="start" direction="ltr" writing-mode="lr-tb" unicode-bidi="normal" text-decoration="none" transform="matrix(1 0 0 1 3188.98 3988)">-</text><text fill="#3A3A3A" fill-opacity="1" font-family="Arial,Arial_MSFontService,sans-serif" font-style="normal" font-variant="normal" font-weight="400" font-stretch="normal" font-size="50" text-anchor="start" direction="ltr" writing-mode="lr-tb" unicode-bidi="normal" text-decoration="none" transform="matrix(1 0 0 1 3205.59 3988)">Attention</text><path d="M3001.5 3421.33C3001.5 3385.53 3030.53 3356.5 3066.34 3356.5L3440.67 3356.5C3476.47 3356.5 3505.5 3385.53 3505.5 3421.33L3505.5 3680.67C3505.5 3716.47 3476.47 3745.5 3440.67 3745.5L3066.34 3745.5C3030.53 3745.5 3001.5 3716.47 3001.5 3680.67Z" stroke="#042433" stroke-width="6.875" stroke-linecap="butt" stroke-linejoin="miter" stroke-miterlimit="8" stroke-dasharray="27.5 20.625" stroke-opacity="1" fill="none" fill-rule="evenodd"/><path d="M3000.5 3924.34C3000.5 3888.53 3029.53 3859.5 3065.33 3859.5L3439.67 3859.5C3475.47 3859.5 3504.5 3888.53 3504.5 3924.34L3504.5 4183.67C3504.5 4219.47 3475.47 4248.5 3439.67 4248.5L3065.33 4248.5C3029.53 4248.5 3000.5 4219.47 3000.5 4183.67Z" stroke="#042433" stroke-width="6.875" stroke-linecap="butt" stroke-linejoin="miter" stroke-miterlimit="8" stroke-dasharray="27.5 20.625" stroke-opacity="1" fill="none" fill-rule="evenodd"/><g filter="url(#fx8)" transform="translate(3138 3674)"><g><g><path d="M45.0635 0.537109C43.0583 0.537109 41.3932-0.116374 40.0684-1.42334 38.7435-2.73031 38.081-4.33268 38.0811-6.23047 38.081-8.19987 38.7435-9.82015 40.0684-11.0913 41.3932-12.3625 43.0583-12.998 45.0635-12.998 47.0329-12.998 48.6621-12.3625 49.9512-11.0913 51.2402-9.82015 51.8848-8.19987 51.8848-6.23047 51.8848-4.33268 51.2402-2.73031 49.9512-1.42334 48.6621-0.116374 47.0329 0.537109 45.0635 0.537109ZM15.791 0.537109C13.7858 0.537109 12.1208-0.116374 10.7959-1.42334 9.47103-2.73031 8.80859-4.33268 8.80859-6.23047 8.80859-8.19987 9.47103-9.82015 10.7959-11.0913 12.1208-12.3625 13.7858-12.998 15.791-12.998 17.7604-12.998 19.3896-12.3625 20.6787-11.0913 21.9678-9.82015 22.6123-8.19987 22.6123-6.23047 22.6123-4.33268 21.9678-2.73031 20.6787-1.42334 19.3896-0.116374 17.7604 0.537109 15.791 0.537109ZM74.3359 0.537109C72.3307 0.537109 70.6657-0.116374 69.3408-1.42334 68.0159-2.73031 67.3535-4.33268 67.3535-6.23047 67.3535-8.19987 68.0159-9.82015 69.3408-11.0913 70.6657-12.3625 72.3307-12.998 74.3359-12.998 76.3053-12.998 77.9346-12.3625 79.2236-11.0913 80.5127-9.82015 81.1572-8.19987 81.1572-6.23047 81.1572-4.33268 80.5127-2.73031 79.2236-1.42334 77.9346-0.116374 76.3053 0.537109 74.3359 0.537109Z" fill="#000000" fill-rule="nonzero" fill-opacity="1" transform="matrix(1 0 0 1 73.9763 143)"/></g></g></g><text fill="#000000" fill-opacity="1" font-family="Aptos,Aptos_MSFontService,sans-serif" font-style="normal" font-variant="normal" font-weight="400" font-stretch="normal" font-size="110" text-anchor="start" direction="ltr" writing-mode="lr-tb" unicode-bidi="normal" text-decoration="none" transform="matrix(1 0 0 1 3209.68 3815)">…</text><g filter="url(#fx9)" transform="translate(1469 3674)"><g><g><path d="M45.0635 0.537109C43.0583 0.537109 41.3932-0.116374 40.0684-1.42334 38.7435-2.73031 38.081-4.33268 38.0811-6.23047 38.081-8.19987 38.7435-9.82015 40.0684-11.0913 41.3932-12.3625 43.0583-12.998 45.0635-12.998 47.0329-12.998 48.6621-12.3625 49.9512-11.0913 51.2402-9.82015 51.8848-8.19987 51.8848-6.23047 51.8848-4.33268 51.2402-2.73031 49.9512-1.42334 48.6621-0.116374 47.0329 0.537109 45.0635 0.537109ZM15.791 0.537109C13.7858 0.537109 12.1208-0.116374 10.7959-1.42334 9.47103-2.73031 8.80859-4.33268 8.80859-6.23047 8.80859-8.19987 9.47103-9.82015 10.7959-11.0913 12.1208-12.3625 13.7858-12.998 15.791-12.998 17.7604-12.998 19.3896-12.3625 20.6787-11.0913 21.9678-9.82015 22.6123-8.19987 22.6123-6.23047 22.6123-4.33268 21.9678-2.73031 20.6787-1.42334 19.3896-0.116374 17.7604 0.537109 15.791 0.537109ZM74.3359 0.537109C72.3307 0.537109 70.6657-0.116374 69.3408-1.42334 68.0159-2.73031 67.3535-4.33268 67.3535-6.23047 67.3535-8.19987 68.0159-9.82015 69.3408-11.0913 70.6657-12.3625 72.3307-12.998 74.3359-12.998 76.3053-12.998 77.9346-12.3625 79.2236-11.0913 80.5127-9.82015 81.1572-8.19987 81.1572-6.23047 81.1572-4.33268 80.5127-2.73031 79.2236-1.42334 77.9346-0.116374 76.3053 0.537109 74.3359 0.537109Z" fill="#000000" fill-rule="nonzero" fill-opacity="1" transform="matrix(1 0 0 1 74.3291 143)"/></g></g></g><text fill="#000000" fill-opacity="1" font-family="Aptos,Aptos_MSFontService,sans-serif" font-style="normal" font-variant="normal" font-weight="400" font-stretch="normal" font-size="110" text-anchor="start" direction="ltr" writing-mode="lr-tb" unicode-bidi="normal" text-decoration="none" transform="matrix(1 0 0 1 1541.03 3814)">…</text><text fill="#171717" fill-opacity="1" font-family="Arial,Arial_MSFontService,sans-serif" font-style="normal" font-variant="normal" font-weight="400" font-stretch="normal" font-size="55" text-anchor="start" direction="ltr" writing-mode="lr-tb" unicode-bidi="normal" text-decoration="none" transform="matrix(-1.83697e-16 -1 1 -1.83697e-16 2961.28 3755)">Decoder block 1</text><text fill="#171717" fill-opacity="1" font-family="Arial,Arial_MSFontService,sans-serif" font-style="normal" font-variant="normal" font-weight="400" font-stretch="normal" font-size="55" text-anchor="start" direction="ltr" writing-mode="lr-tb" unicode-bidi="normal" text-decoration="none" transform="matrix(-1.83697e-16 -1 1 -1.83697e-16 2965.18 4254)">Decoder block 26</text><path d="M3055.5 3629.69C3055.5 3606.94 3073.94 3588.5 3096.69 3588.5L3410.31 3588.5C3433.06 3588.5 3451.5 3606.94 3451.5 3629.69L3451.5 3660.31C3451.5 3683.06 3433.06 3701.5 3410.31 3701.5L3096.69 3701.5C3073.94 3701.5 3055.5 3683.06 3055.5 3660.31Z" stroke="#595959" stroke-width="6.875" stroke-linecap="butt" stroke-linejoin="miter" stroke-miterlimit="8" stroke-opacity="1" fill="#CEDFD1" fill-rule="evenodd" fill-opacity="1"/><text fill="#3A3A3A" fill-opacity="1" font-family="Arial,Arial_MSFontService,sans-serif" font-style="normal" font-variant="normal" font-weight="400" font-stretch="normal" font-size="64" text-anchor="start" direction="ltr" writing-mode="lr-tb" unicode-bidi="normal" text-decoration="none" transform="matrix(1 0 0 1 3187.26 3668)">MoE</text><path d="M3593 3384.12 4689.17 3384.13 4689.17 3397.88 3593 3397.88ZM4682.3 3370.38 4723.55 3391 4682.3 3411.63Z" fill="#7F7F7F" fill-rule="nonzero" fill-opacity="1"/></g></g></svg>